<?xml version="1.0" standalone="no"?>
<!DOCTYPE svg PUBLIC "-//W3C//DTD SVG 20010904//EN"
 "http://www.w3.org/TR/2001/REC-SVG-20010904/DTD/svg10.dtd">
<svg version="1.0" xmlns="http://www.w3.org/2000/svg"
 width="260.000000pt" height="260.000000pt" viewBox="0 0 260.000000 260.000000"
 preserveAspectRatio="xMidYMid meet">
<metadata>
Created by potrace 1.11, written by Peter Selinger 2001-2013
</metadata>
<g transform="translate(0.000000,260.000000) scale(0.100000,-0.100000)"
fill="#000000" stroke="none">
<path d="M50 1865 l0 -135 1085 0 1085 0 0 -145 0 -145 -640 0 -640 0 0 -410
0 -410 150 0 150 0 0 285 0 285 163 0 162 0 285 -285 285 -285 225 0 225 0
-285 285 -285 285 248 0 247 0 0 405 0 405 -1230 0 -1230 0 0 -135z"/>
</g>
</svg>
